<svg xmlns="http://www.w3.org/2000/svg" viewBox="0 0 500 500"><g id="freepik--background-complete--inject-45"><path d="M25.88,206.8l7.28-.57s-.49-6.11,5.86-6.73a5.9,5.9,0,0,1,6,3.31,6.55,6.55,0,0,1,0,5.94c-1.07,2.13-3.63,4.19-8.6,3.72l1.3,16.4,7.19-.57-.76-9.61s9.89-3.4,9-14.53c-.85-10.64-10.58-12.35-14.67-12C35.31,192.38,24.73,194,25.88,206.8Z" style="fill:#e0e0e0"></path><rect x="38.16" y="231.95" width="7.32" height="6.84" transform="translate(-18.43 4.03) rotate(-4.52)" style="fill:#e0e0e0"></rect><path d="M377.87,267.63h3.94a3.35,3.35,0,0,1,3.44-3.37,3.2,3.2,0,0,1,3.1,2,3.53,3.53,0,0,1-.29,3.19c-.66,1.1-2.13,2.11-4.79,1.64V280h3.9v-5.21a7.61,7.61,0,0,0,5.47-7.44c0-5.77-5.17-7.11-7.39-7.11C383.56,260.26,377.79,260.67,377.87,267.63Z" style="fill:#e0e0e0"></path><rect x="383.26" y="281.86" width="3.96" height="3.7" style="fill:#e0e0e0"></rect><path d="M27.05,391.3l5,.72a4.34,4.34,0,0,1,5-3.68,4.11,4.11,0,0,1,3.57,3.17,4.54,4.54,0,0,1-.94,4c-1.05,1.28-3.11,2.3-6.42,1.22L31.7,408.12l5,.71,1-6.66A9.83,9.83,0,0,0,46,393.66c1.05-7.37-5.32-10-8.15-10.42C35.67,382.93,28.23,382.4,27.05,391.3Z" style="fill:#f5f5f5"></path><rect x="30.99" y="410.79" width="5.11" height="4.77" transform="translate(58.62 -0.6) rotate(8.11)" style="fill:#f5f5f5"></rect><path d="M158.72,48.58l6.62-1.43s-1.21-5.56,4.55-6.91a5.47,5.47,0,0,1,5.93,2.29,6.09,6.09,0,0,1,.69,5.47c-.72,2.09-2.82,4.31-7.45,4.49l3.24,14.93L178.85,66,177,57.26s8.67-4.37,6.47-14.49c-2.09-9.68-11.27-10.05-15-9.24C165.59,34.14,156.06,36.93,158.72,48.58Z" style="fill:#f5f5f5"></path><rect x="173.54" y="69.71" width="6.8" height="6.35" transform="translate(-11.43 39.14) rotate(-12.23)" style="fill:#f5f5f5"></rect><path d="M433.64,432.36l3.85.85a3.35,3.35,0,0,1,4.09-2.55,3.21,3.21,0,0,1,2.58,2.66,3.55,3.55,0,0,1-1,3.06c-.89.93-2.54,1.59-5,.56l-1.92,8.69,3.81.84,1.12-5.09a7.62,7.62,0,0,0,6.95-6.09c1.25-5.63-3.52-8.05-5.68-8.53C440.79,426.39,435.07,425.55,433.64,432.36Z" style="fill:#e0e0e0"></path><rect x="435.39" y="447.8" width="3.96" height="3.7" transform="translate(107.34 -83.79) rotate(12.46)" style="fill:#e0e0e0"></rect><path d="M445.3,150.12h7.26s0-6.1,6.34-6.21a5.88,5.88,0,0,1,5.7,3.75,6.54,6.54,0,0,1-.52,5.89c-1.23,2-3.93,3.88-8.83,3V173h7.19v-9.6s10.07-2.61,10.07-13.71c0-10.62-9.53-13.09-13.6-13.09C455.79,136.55,445.16,137.3,445.3,150.12Z" style="fill:#f5f5f5"></path><rect x="455.23" y="176.32" width="7.29" height="6.81" style="fill:#f5f5f5"></rect><path d="M264.26,59l7.84,1.73s1.46-6.58,8.32-5.18a6.48,6.48,0,0,1,5.25,5.4,7.21,7.21,0,0,1-2,6.23c-1.82,1.89-5.17,3.24-10.25,1.14L269.56,86l7.75,1.71,2.29-10.35s11.49-.41,14.14-12.39c2.53-11.46-7.16-16.39-11.56-17.37C278.81,46.83,267.17,45.11,264.26,59Z" style="fill:#e0e0e0"></path><rect x="267.83" y="90.39" width="8.06" height="7.52" transform="translate(26.72 -56.45) rotate(12.46)" style="fill:#e0e0e0"></rect></g><g id="freepik--Table--inject-45"><path d="M449.25,467c0,.14-89.18.25-199.16.25S50.92,467.11,50.92,467s89.15-.25,199.17-.25S449.25,466.83,449.25,467Z" style="fill:#263238"></path></g><g id="freepik--Character--inject-45"><polygon points="221.35 71.32 197.12 79.35 205.69 103.34 221.35 71.32" style="fill:#455a64"></polygon><path d="M224.08,175.25l-7.9-14.94c15.46-8.17,23.36-20.15,22.24-33.73-1.2-14.6-12.86-28-29-33.42l5.35-16c22.84,7.62,38.74,26.49,40.52,48.07C257,145.64,245.58,163.89,224.08,175.25Z" style="fill:#455a64"></path><g style="opacity:0.30000000000000004"><path d="M237.66,137.19s7.51,2.44,17.26-2.93l-1,7.32-18,6.83-.39-5.49Z"></path></g><path d="M220.2,281.63c-50.43-6.89-91.18-21.86-121.12-44.5C73.71,218,63.56,198.69,60.23,192.36c-8.72-16.55-12.47-34.45-10.86-51.79,3-31.85,26.16-51.07,41-56.21C102.94,80,119.68,80,130.7,81.87A113,113,0,0,1,165.52,94l-10.14,18.66a92,92,0,0,0-28.27-9.88c-9.56-1.64-22.35-.94-29.77,1.63-7.85,2.71-24.72,15.6-26.82,38.11-1.23,13.22,1.71,27,8.5,39.92,2.79,5.29,11.28,21.41,32.86,37.73,27,20.41,64.42,34,111.2,40.4Z" style="fill:#5E72FF"></path><g style="opacity:0.30000000000000004"><polygon points="109.02 217.91 88.92 228.77 97.7 236.12 117.31 224.15 109.02 217.91"></polygon></g><g style="opacity:0.30000000000000004"><path d="M177.14,251.31s0,19.87,3.33,22.85l7,1.66-5.36-23.32Z"></path></g><polygon points="149.8 119.07 176.33 111.86 168.52 85.55 149.8 119.07" style="fill:#5E72FF"></polygon><path d="M354,453.21l-3-20.33c61.37-9,93.51-58.6,104.47-79.51l18.2,9.54C461.21,386.61,424.67,442.85,354,453.21Z" style="fill:#5E72FF"></path><polygon points="476.54 376.64 472.46 344.71 441.27 359.06 476.54 376.64" style="fill:#5E72FF"></polygon><g style="opacity:0.30000000000000004"><polygon points="393.75 418.47 388.77 421.08 391.93 442.31 400.35 438.26 393.75 418.47"></polygon></g><path d="M169.8,440.62C142,436,102.54,424.08,72.31,394.05,44.06,366,30.6,326.7,37.17,291.52c3.39-18.15,12.19-35.8,25.45-51a139.12,139.12,0,0,1,45.65-34.18c29.16-13.69,64.74-19.5,108.78-17.79l-.65,16.89c-41.28-1.61-74.3,3.69-100.95,16.2-32.46,15.24-56.09,43.22-61.66,73s6.1,63.27,30.43,87.44c27.08,26.9,63,37.63,88.38,41.89Z" style="fill:#455a64"></path><g style="opacity:0.30000000000000004"><polygon points="156.39 420.57 151.4 436.74 163.74 439.9 163.28 422.17 156.39 420.57"></polygon></g><path d="M170,210.88a52,52,0,0,1,37.51-59.76l2.6-.7c28.48-6,49.47,14.87,54.66,43.51L283.88,303l-37.61,33.23-21-12c-1.81-8-5.69-24.52-5.75-24.51s-28.09,3.13-35.74-23.73C180.11,263,174.67,235.68,170,210.88Z" style="fill:#ae7461"></path><path d="M219.55,299.72s17.26-3.62,32.27-19.9c0,0-2.94,22.55-30.49,27.43Z" style="fill:#6f4439"></path><path d="M185.64,233a4,4,0,0,0,4.76,2.88,3.82,3.82,0,0,0,3-4.55,4,4,0,0,0-4.77-2.88A3.81,3.81,0,0,0,185.64,233Z" style="fill:#263238"></path><path d="M179,221.23c.61.37,2.94-2.58,7.09-3.69s7.74.13,8-.5c.16-.28-.57-1.06-2.16-1.66a10.9,10.9,0,0,0-6.61-.23,10.51,10.51,0,0,0-5.47,3.57C178.89,220,178.7,221.07,179,221.23Z" style="fill:#263238"></path><path d="M221.11,223.94a4,4,0,0,0,4.77,2.87,3.8,3.8,0,0,0,3-4.55,4,4,0,0,0-4.76-2.87A3.82,3.82,0,0,0,221.11,223.94Z" style="fill:#263238"></path><path d="M219.85,211.16c.62.37,3-2.58,7.09-3.69s7.75.13,8.06-.5c.16-.28-.57-1.06-2.16-1.66a11,11,0,0,0-6.62-.22,10.53,10.53,0,0,0-5.47,3.56C219.75,210,219.56,211,219.85,211.16Z" style="fill:#263238"></path><path d="M213.64,247c0-.24-2.74,0-7,.61-1.09.18-2.15.24-2.52-.43s-.33-2-.15-3.33c.3-2.83.61-5.79.94-8.9,1.23-12.64,1.81-22.93,1.3-23s-1.92,10.17-3.14,22.81q-.42,4.66-.8,8.92c-.07,1.31-.39,2.86.58,4.3A2.76,2.76,0,0,0,205,249.1a7.58,7.58,0,0,0,1.86-.24C211.08,248,213.69,247.26,213.64,247Z" style="fill:#263238"></path><path d="M236.16,197.31c-.55-1.11-4.75-.09-9.82-.15s-9.27-1-9.82.14c-.24.53.58,1.54,2.34,2.49a17.08,17.08,0,0,0,15,0C235.57,198.86,236.4,197.84,236.16,197.31Z" style="fill:#263238"></path><path d="M175.5,209.1c1.11.73,4.24-1.12,8.3-2.21s7.68-1.28,8.22-2.47c.23-.57-.56-1.38-2.29-1.89a13.6,13.6,0,0,0-7.16.18,13.29,13.29,0,0,0-6.15,3.6C175.23,207.65,175,208.74,175.5,209.1Z" style="fill:#263238"></path><path d="M268,213.86c.4-.32,17.1-9.89,21.52,8.7s-16.81,19.8-17,19.27S268,213.86,268,213.86Z" style="fill:#ae7461"></path><path d="M278.17,232.83c.07-.08.38.15,1,.27a3.38,3.38,0,0,0,2.43-.53c1.8-1.19,2.71-4.7,2-8.07a11,11,0,0,0-2-4.42,3.87,3.87,0,0,0-3-1.9,1.68,1.68,0,0,0-1.7,1.34c-.13.58.08.92,0,1s-.47-.22-.51-1a2.15,2.15,0,0,1,.46-1.34,2.51,2.51,0,0,1,1.68-.9c1.45-.24,3.06.77,4.06,2.08a11.26,11.26,0,0,1,2.36,4.91c.77,3.77-.32,7.73-2.82,9.15a3.59,3.59,0,0,1-3.08.21C278.31,233.27,278.11,232.88,278.17,232.83Z" style="fill:#6f4439"></path><path d="M125.73,194.94a4.5,4.5,0,0,1,1.45-3.06c1.82-1.77,4.31-2.19,6.67-2.8a40.08,40.08,0,0,0,16-8.34,20,20,0,0,1-5.84-2.31c-3.72-2.27-6.55-6.45-6.13-10.79a2.61,2.61,0,0,1,1-2.12c1.11-.66,2.45.27,3.52,1,3.51,2.42,6.38,3.14,10.41,1.73a16.92,16.92,0,0,0,6.56-3.78l.17-.31c.73-1.23,1.44-2.41,2.15-3.55h0c5.33-8.61,10.19-14.85,15.78-18.82,8.19-5.83,23-10.94,33.05-10.73s20.39,5.85,24,15.22c4.23-5.75,12.2-7.62,19.28-6.58l.15-.11c7.8.84,13.71,7.46,17.59,14.29.22.37.41.75.62,1.13a29.33,29.33,0,0,0,11.95,7.13c.79.24,1.7.55,2,1.33a2.39,2.39,0,0,1-.77,2.21,14.75,14.75,0,0,1-5.24,3.81A32.19,32.19,0,0,0,283.7,174c1.14,1.19,2.5,2.6,2.14,4.2a3.14,3.14,0,0,1-2.85,2.15,9.22,9.22,0,0,1-3.71-.72l3.79,5.19a17.45,17.45,0,0,1-7.95,1.35c.12,7.23,2,20.21,1.36,25.28-4.91,1.27-6.23,1-8.52,2.44-3,1.84-.37,7.24-4.95,6.62-2.32-.31-7.53-7.6-8.77-9.6a109.11,109.11,0,0,1-15.35-43.79A34.93,34.93,0,0,0,226.54,162l.39.21c-8.23-.81-17.44-1.35-23.79,3.95-4.93,4.1-6.82,10.69-9.89,16.32-5.82,10.67-13.66,17.5-25.35,20.84.9,8.46,3.8,21.94,5.24,29.69l-10.21-13.75v.07c-.74-.78-1.4-1.58-2-2.38l-.21-.24v0a49.18,49.18,0,0,0-3.2-3.83l-.06.08c-3.27,4.65-10.72.52-8.52-4.72a11.36,11.36,0,0,1,1.76-2.88,7.77,7.77,0,0,1-6.76,3.6,6.09,6.09,0,0,1-5.6-4.86,5.19,5.19,0,0,1,2-4.77,17.55,17.55,0,0,1-10.2.19C128,198.85,125.65,197.51,125.73,194.94Z" style="fill:#263238"></path><path d="M227.89,151.45a25.87,25.87,0,0,1,3.32,1.84,20.1,20.1,0,0,1,6.34,8,35.91,35.91,0,0,1,2.35,6.74c.61,2.5,1,5.23,1.54,8.1a73.8,73.8,0,0,0,1.93,9,32.43,32.43,0,0,0,1.74,4.55,10.08,10.08,0,0,0,3,4.1,4.21,4.21,0,0,0,4.15.37,6.18,6.18,0,0,0,3-2.77c1.26-2.46,1.08-5.16,1-7.54l-.56.2a23.25,23.25,0,0,0,4.68,4.9,8.31,8.31,0,0,0,6,1.62,5.38,5.38,0,0,0,2.69-1.17,4.56,4.56,0,0,0,1.45-2.33,4.7,4.7,0,0,0,0-2.55,3.45,3.45,0,0,0-1.38-1.9l-.22.32a17.9,17.9,0,0,0,6.89,3,13.75,13.75,0,0,0,2,.27,2.69,2.69,0,0,0,.68,0,3.1,3.1,0,0,0-.67-.12,19.14,19.14,0,0,1-2-.36,18.76,18.76,0,0,1-6.7-3.1l-.23.33a3.57,3.57,0,0,1,1.15,4,4.18,4.18,0,0,1-1.32,2.08,4.91,4.91,0,0,1-2.44,1,7.8,7.8,0,0,1-5.57-1.56,23.17,23.17,0,0,1-4.52-4.81l-.6-.78,0,1c.11,2.38.24,5-.91,7.2a5.69,5.69,0,0,1-2.67,2.48,3.55,3.55,0,0,1-3.53-.31,9.35,9.35,0,0,1-2.79-3.84,32,32,0,0,1-1.72-4.46,74.85,74.85,0,0,1-1.95-8.88c-.5-2.87-1-5.6-1.61-8.13a34.76,34.76,0,0,0-2.46-6.81,19.88,19.88,0,0,0-6.6-8A11.5,11.5,0,0,0,227.89,151.45Z" style="fill:#455a64"></path><path d="M150.13,198.07s.08.05.26.13l.8.33a9.05,9.05,0,0,0,1.33.47,16.71,16.71,0,0,0,1.86.47,24.65,24.65,0,0,0,12.14-.7,31.63,31.63,0,0,0,14.95-10c4.5-5.21,7.88-12.1,10.2-19.62,1.19-3.77,2-7.53,3-11.07a37.53,37.53,0,0,1,4.09-9.74,19.2,19.2,0,0,1,6.7-6.63,13.59,13.59,0,0,1,4-1.46,14.41,14.41,0,0,1,4-.18A16.17,16.17,0,0,1,224,145.37a19.86,19.86,0,0,1,2.38,3.74,1,1,0,0,0-.09-.28l-.33-.8a13.89,13.89,0,0,0-1.77-2.82,16,16,0,0,0-4-3.4,16.52,16.52,0,0,0-6.63-2.2,15.33,15.33,0,0,0-4.09.15,14.24,14.24,0,0,0-4.19,1.49,19.42,19.42,0,0,0-6.93,6.78,37,37,0,0,0-4.2,9.88c-1.05,3.57-1.85,7.32-3,11.05-2.3,7.47-5.64,14.28-10,19.43a31.49,31.49,0,0,1-14.64,9.94,25.09,25.09,0,0,1-11.95.89A38.64,38.64,0,0,1,150.13,198.07Z" style="fill:#455a64"></path><path d="M144.79,186.72a4.43,4.43,0,0,0,1.14.44,22.44,22.44,0,0,0,3.24.78,29.15,29.15,0,0,0,4.93.4,30.54,30.54,0,0,0,11.82-2.44,28.67,28.67,0,0,0,4.37-2.32,22.4,22.4,0,0,0,2.66-2c.59-.52.9-.82.87-.86s-1.39,1-3.78,2.46a32,32,0,0,1-4.35,2.16,33,33,0,0,1-11.6,2.39,33.67,33.67,0,0,1-4.86-.26C146.48,187.12,144.82,186.6,144.79,186.72Z" style="fill:#455a64"></path><path d="M229,256.46c.07.41-3.07,1.31-6.88,2.51s-6.92,2.25-7.09,1.87,2.73-2,6.65-3.27S229,256.07,229,256.46Z" style="fill:#263238"></path><path d="M215,198.94a2.56,2.56,0,0,1-1.4.32,6,6,0,0,1-3.33-.95,6.09,6.09,0,0,1-2.31-2.58,2.56,2.56,0,0,1-.32-1.4,12.54,12.54,0,0,1,.63,1.24,6.83,6.83,0,0,0,2.26,2.33,6.76,6.76,0,0,0,3.08,1A13.77,13.77,0,0,1,215,198.94Z" style="fill:#6f4439"></path><path d="M232.45,259.41a9.8,9.8,0,0,0,0-2.73,10.72,10.72,0,0,0-1.11-2.49s.33.12.69.52a4.31,4.31,0,0,1,.82,4C232.71,259.17,232.51,259.44,232.45,259.41Z" style="fill:#6f4439"></path><path d="M129,261.39s21.9-44.42,23.4-46.21,9.48-20.36,9.48-20.36L173,181.48s5.24.79,1.91,7.56l-4.73,9,17.39-17.47s5.16.6,3.15,6.07c-1.49,4.07-6.8,10.36-6.8,10.36l15.61-13.55s6.5,1,3.38,7.82c-2,4.43-20.23,24.54-20.23,24.54s9.08-5.61,12-7.47,5.83-5.91,7.95-5.53,5.82,3.67.3,9.93-21,16.24-23.29,17.48l-2.27,1.24s-2.68,7-6.47,10.32c0,0-6.23,19.74-9.37,25.17a27.18,27.18,0,0,1-9,9l-9.58,25.88L115.5,283Z" style="fill:#ae7461"></path><path d="M129,261.39s-.29.5-.87,1.44-1.44,2.36-2.57,4.2l-9.92,16,0-.14L143,301.78l-.24.07c2.87-7.76,6.1-16.5,9.56-25.89a.18.18,0,0,1,.08-.09h0a27.81,27.81,0,0,0,6.91-6.05,21,21,0,0,0,2.59-4c.7-1.45,1.35-3,2-4.51,2.43-6.18,4.63-12.76,6.81-19.55a.28.28,0,0,1,.06-.09,20.66,20.66,0,0,0,3.64-4.64,41.83,41.83,0,0,0,2.78-5.61.24.24,0,0,1,.09-.11c1.15-.64,2.33-1.24,3.44-1.94s2.25-1.41,3.37-2.15c2.24-1.48,4.48-3,6.7-4.6s4.45-3.26,6.61-5a42,42,0,0,0,6.06-5.8,10.52,10.52,0,0,0,2-3.67,4.05,4.05,0,0,0-.77-3.85,3.94,3.94,0,0,0-1.69-1.11,2.27,2.27,0,0,0-1.91.3,21.34,21.34,0,0,0-3.34,2.73,21.07,21.07,0,0,1-3.49,2.74l-3.77,2.36L182.78,216a.22.22,0,0,1-.31-.07.23.23,0,0,1,0-.27l4.2-4.71c4-4.56,8-9.11,11.7-13.75.93-1.16,1.84-2.33,2.7-3.53a12.84,12.84,0,0,0,2.08-3.8,4.87,4.87,0,0,0-.25-4.06,5.28,5.28,0,0,0-3.45-2.14l.18,0L184,197.2a.22.22,0,0,1-.31,0,.24.24,0,0,1,0-.29,55.38,55.38,0,0,0,5.93-8.46,12,12,0,0,0,1-2.31,5.08,5.08,0,0,0,.25-2.4,3.14,3.14,0,0,0-1.18-2,4.75,4.75,0,0,0-2.18-.92l.17-.06L170.3,198.2a.2.2,0,0,1-.28,0,.2.2,0,0,1,0-.24l4.63-8.79a14.38,14.38,0,0,0,.89-2.21,9,9,0,0,0,.26-1.14,6.22,6.22,0,0,0,0-1.14,3.23,3.23,0,0,0-.89-2,3.74,3.74,0,0,0-1.93-1l.16-.07L162,194.93l0,0c-2.27,5.24-4.47,10.23-6.66,14.9-.55,1.17-1.1,2.32-1.67,3.44-.29.56-.58,1.1-.91,1.64s-.67,1-1,1.55c-1.18,2.12-2.25,4.22-3.3,6.24-4.16,8.1-7.67,15.12-10.56,20.87l-6.63,13.25c-.75,1.51-1.33,2.66-1.73,3.44s-.6,1.17-.6,1.17.18-.4.56-1.19l1.69-3.47,6.54-13.29c2.86-5.76,6.35-12.79,10.49-20.91,1.05-2,2.11-4.12,3.29-6.25a17.32,17.32,0,0,1,1-1.57c.32-.51.61-1.07.89-1.62.57-1.11,1.11-2.26,1.66-3.43,2.18-4.67,4.37-9.66,6.63-14.91,0,0,0,0,0,0l11.15-13.34h0a.17.17,0,0,1,.16-.06,4,4,0,0,1,2.14,1.13,3.56,3.56,0,0,1,1,2.22,5.62,5.62,0,0,1,0,1.23,9.87,9.87,0,0,1-.26,1.2,15.41,15.41,0,0,1-.92,2.27l-4.62,8.81-.31-.23q8.34-8.4,17.39-17.47h0a.18.18,0,0,1,.17,0,5.21,5.21,0,0,1,2.39,1,3.54,3.54,0,0,1,1.33,2.25,5.45,5.45,0,0,1-.25,2.6,12,12,0,0,1-1,2.39,54.39,54.39,0,0,1-6,8.54l-.31-.3,15.61-13.56h0a.22.22,0,0,1,.17-.05,6.56,6.56,0,0,1,2.11.79,4.57,4.57,0,0,1,1.65,1.56,5.33,5.33,0,0,1,.31,4.43,10.77,10.77,0,0,1-.91,2.06c-.37.65-.81,1.25-1.23,1.86-.88,1.21-1.79,2.38-2.72,3.55-3.73,4.65-7.69,9.2-11.72,13.77l-4.2,4.71-.28-.34,7.58-4.74c2.5-1.62,5.13-3,7.2-5a22.22,22.22,0,0,1,3.43-2.79,4.19,4.19,0,0,1,1.07-.42,2.24,2.24,0,0,1,1.18.08A4.33,4.33,0,0,1,204.9,204a4.47,4.47,0,0,1,.87,4.25,10.91,10.91,0,0,1-2.05,3.83,41.42,41.42,0,0,1-6.13,5.87c-2.17,1.77-4.39,3.43-6.62,5s-4.48,3.13-6.73,4.6c-1.12.74-2.24,1.46-3.38,2.16s-2.31,1.31-3.45,1.95l.09-.11a39.93,39.93,0,0,1-2.82,5.67A21.09,21.09,0,0,1,171,242l.06-.1c-2.19,6.81-4.39,13.38-6.84,19.58-.61,1.54-1.26,3.06-2,4.53a21.93,21.93,0,0,1-2.64,4.08,28,28,0,0,1-7,6.12l.08-.09L143,302a.14.14,0,0,1-.19.09l0,0-27.34-18.94a.11.11,0,0,1,0-.14c4.33-6.92,7.71-12.31,10-16l2.62-4.16C128.63,261.87,129,261.39,129,261.39Z" style="fill:#6f4439"></path><path d="M186.41,194.19a8.63,8.63,0,0,1-.95,1.21c-.64.76-1.59,1.85-2.77,3.17-2.39,2.64-5.75,6.23-9.71,9.94a107,107,0,0,1-8.76,7.44l0,0h0a17.94,17.94,0,0,0-5.31,2.5c-1.16.8-1.74,1.35-1.77,1.32s.12-.17.39-.43a15.61,15.61,0,0,1,1.26-1.06,17.15,17.15,0,0,1,5.32-2.67l-.06,0c2.53-2,5.55-4.55,8.68-7.49,4-3.7,7.34-7.24,9.78-9.82l2.88-3.07A9.89,9.89,0,0,1,186.41,194.19Z" style="fill:#6f4439"></path><path d="M171,197a13.47,13.47,0,0,1-1.64,2.06c-1.06,1.23-2.57,2.89-4.29,4.68l-4.4,4.56a17.14,17.14,0,0,1-1.89,1.84,13.73,13.73,0,0,1,1.65-2.05c1.08-1.22,2.61-2.87,4.32-4.66l4.38-4.58A16.84,16.84,0,0,1,171,197Z" style="fill:#6f4439"></path><path d="M183.08,215.59a3.36,3.36,0,0,1-.64.52c-.43.31-1.06.74-1.86,1.26a67.08,67.08,0,0,1-6.46,3.61,65.79,65.79,0,0,1-6.83,2.85c-.9.31-1.63.55-2.14.69a3.09,3.09,0,0,1-.8.18,26.62,26.62,0,0,1,2.83-1.16c1.75-.7,4.15-1.71,6.74-3s4.86-2.52,6.49-3.47A25.67,25.67,0,0,1,183.08,215.59Z" style="fill:#6f4439"></path><path d="M125.57,264.86c-1,1.27-29.34,44-29.34,44s-26.8,41.76-30.72,53.51c-5.72,17.15-7,46.89,11.5,54.86s24.87,8.23,47.19-.38a154.65,154.65,0,0,0,38.59-22.06l-4.38-77.72-18,9.24,15.49-41.59Z" style="fill:#e0e0e0"></path><path d="M364,331s14.41,11.53,19.63,50.82c3.29,24.81,12.64,84.92,12.64,84.92l-54.48.12s-10.95-77.56-9.83-78.73S364,331,364,331Z" style="fill:#e0e0e0"></path><path d="M158.41,317.07l61.33-7.87s11.57,18.53,34.22,14.91c31.8-5.08,31-27.51,31-27.51s52.92,18.17,63.16,22.76A45.56,45.56,0,0,1,364,331s-18.8,73-19.39,73.88-4.15,62.67-2.82,62c.57-.3-172.61,0-175.48,0L161.1,393.2,143,330.36Z" style="fill:#e0e0e0"></path><path d="M148.45,305.66a4.69,4.69,0,0,1-.25.72c-.19.51-.45,1.18-.78,2-.67,1.77-1.66,4.32-2.82,7.51-2.34,6.35-5.34,15.21-8.57,25-1.6,4.93-3.31,9.54-4.26,13.91-.53,2.18-1,4.25-1.55,6.17a48.81,48.81,0,0,1-1.79,5.26c-.62,1.58-1.13,3-1.56,4.29a28,28,0,0,1-1.32,3.2c-.41.85-.74,1.51-1,2a5.23,5.23,0,0,1-.37.67,6.19,6.19,0,0,1,.29-.71l.9-2a29.3,29.3,0,0,0,1.24-3.2c.4-1.28.9-2.74,1.51-4.32a77.52,77.52,0,0,0,3.22-11.42c.94-4.39,2.65-9,4.24-13.95,3.23-9.81,6.28-18.66,8.7-25,1.2-3.16,2.23-5.71,3-7.46l.86-2A4.15,4.15,0,0,1,148.45,305.66Z" style="fill:#263238"></path><path d="M163.27,423.26a4.48,4.48,0,0,1-.07-.51c0-.37-.07-.86-.13-1.47-.1-1.33-.25-3.2-.44-5.55-.35-4.79-.83-11.51-1.41-19.38v0c-1.08-4.89-2.35-10.25-3.84-15.82-3.08-11.54-6.71-21.76-10.17-28.78a64.14,64.14,0,0,0-4.6-8c-.63-.9-1.17-1.55-1.51-2l-.39-.53-.12-.19s.06.05.16.16l.42.5c.36.45.93,1.09,1.58,2a58.42,58.42,0,0,1,4.74,8c3.55,7,7.24,17.25,10.32,28.8,1.5,5.58,2.75,10.95,3.82,15.85v0h0c.51,7.88.94,14.6,1.25,19.39.13,2.35.24,4.23.32,5.56,0,.62,0,1.11.06,1.47A1.75,1.75,0,0,1,163.27,423.26Z" style="fill:#263238"></path><path d="M341.77,466.89s0,.19,0,0,0-.49,0-.84c0-.76,0-1.84,0-3.21,0-2.82,0-6.85.05-11.81.08-10,.19-23.78.31-39v0h0l0-.24c2-15.15,3.89-28.86,5.23-38.82L349,361.19c.2-1.37.36-2.44.47-3.2.05-.34.1-.62.13-.83a1.18,1.18,0,0,1,.06-.28,1.6,1.6,0,0,1,0,.29l-.09.84c-.09.76-.22,1.83-.39,3.2-.35,2.81-.86,6.82-1.49,11.78-1.31,10-3.12,23.67-5.11,38.83l0,.24v0c-.17,15.23-.33,29-.45,39-.08,5-.14,9-.19,11.81,0,1.37-.05,2.45-.07,3.21q0,.52,0,.84C341.76,467.08,341.78,466.89,341.77,466.89Z" style="fill:#263238"></path><polygon points="245.86 346.65 231.72 466.57 273.08 466.77 255.23 346.65 245.86 346.65" style="fill:#5E72FF"></polygon><g style="opacity:0.30000000000000004"><path d="M63.46,370s25.09,43.41,66.73,44.36l9.5-5.63L68.94,352.56S64.75,363.34,63.46,370Z"></path></g><path d="M213.64,309.49l5.41-9.67s31.19,23.72,30.76,24.21c0,0,32.77-35.56,33.29-36.09l7.25,10.77S261.4,336,261,336.32s-18.23-3.22-18.23-3.22L227.69,326Z" style="fill:#e0e0e0"></path><polygon points="241.13 338.58 246.35 348.88 255.73 348.88 259.42 336.99 252.49 328.83 248.39 328.83 241.13 338.58" style="fill:#5E72FF"></polygon><path d="M250.27,326.26a1.26,1.26,0,0,1-.17.3l-.55.8-2.13,3-7.56,10.29-.17.23-.18-.21-7-7.63c-5.23-5.74-9.92-11-13.22-14.86-1.66-1.93-3-3.52-3.85-4.64-.45-.56-.76-1-1-1.31a2.71,2.71,0,0,1-.31-.48,2.34,2.34,0,0,1,.39.42c.25.28.59.71,1.06,1.25.92,1.08,2.27,2.63,4,4.53,3.37,3.81,8.09,9,13.32,14.76l7,7.65-.35,0,7.7-10.18,2.24-2.9c.24-.3.45-.55.61-.76A1.55,1.55,0,0,1,250.27,326.26Z" style="fill:#263238"></path><path d="M290.81,300.94c.36.14-1.69,3.29-5.23,8.05s-8.57,11.29-14.2,18.4c-3.52,4.46-6.86,8.62-9.75,12.18l-.16.2-.17-.2-8-9.59L251,327.26l-.58-.73a1.41,1.41,0,0,1-.18-.27,1.53,1.53,0,0,1,.24.23l.62.68,2.33,2.65,8.17,9.48h-.33l9.7-12.21c5.63-7.12,10.7-13.58,14.31-18.31S291,301,290.81,300.94Z" style="fill:#263238"></path><path d="M245.64,348.16a14.86,14.86,0,0,1,1-2.67c.67-1.62,1.65-3.83,2.86-6.22s2.41-4.49,3.33-6a15.7,15.7,0,0,1,1.58-2.35,16.47,16.47,0,0,1-1.28,2.52c-.84,1.54-2,3.66-3.19,6s-2.24,4.56-3,6.14A18.37,18.37,0,0,1,245.64,348.16Z" style="fill:#263238"></path><path d="M255.5,348.72a49.53,49.53,0,0,1-9.74,0,47.56,47.56,0,0,1,9.74,0Z" style="fill:#263238"></path><g style="opacity:0.30000000000000004"><polygon points="217.25 315.57 241.09 344.57 252.46 328.64 250.27 326.26 239.67 340.49 217.25 315.57"></polygon></g><g style="opacity:0.30000000000000004"><path d="M252.46,328.64c1.22,1.63,6.93,17.44,9.1,17.65s27.29-42.05,27.29-42.05l-27.38,35.19Z"></path></g><g style="opacity:0.30000000000000004"><path d="M124.49,375.69,122,381.93s9.65,1,13-17.8,3.39-30.22,3.39-30.22Z"></path></g><g style="opacity:0.30000000000000004"><polygon points="345.67 466.9 343.88 401.65 342.51 412 341.74 466.82 345.67 466.9"></polygon></g><g style="opacity:0.30000000000000004"><path d="M195.55,314.59s16.3,14.33,44.33,14.24,45.31-8.17,63.38-23.81L293,301.46s-16.48,11.23-42.39,11.72-41.79-.88-41.79-.88Z"></path></g><path d="M232.4,467s7.15-11.29,18.77-17.2c12.16-6.18,18.62-6,18.62-6l-1.4-9.42-17.22.46-15.34,12-2.1,7.8Z" style="opacity:0.30000000000000004"></path><g style="opacity:0.30000000000000004"><path d="M166.32,464.56s6.48-9.61,19.49-20.72,82.95-52.32,82.95-52.32l101.55-53.36-5.83-7.23L203,409.31l-39.22,34.27Z"></path></g><path d="M164.68,466.59H147.75c1.19-23.81,13.14-41,40.1-59.66,24.77-17.15,63.17-36.29,116.32-62.79,19.47-9.71,41.53-20.71,65.7-33a108.71,108.71,0,0,0,36.45-29.8l13.34,10.38a125.77,125.77,0,0,1-42.13,34.49c-24.23,12.31-46.32,23.33-65.82,33.05C208.94,410.5,166.45,430.89,164.68,466.59Z" style="fill:#455a64"></path><path d="M160,415.71c-42.94,0-82.76-28.95-95.49-56.52-3.7-8-9.86-23.56-9.58-37.73.22-11.27,4.53-27.42,15.93-35.86,5.41-4,13-6.85,20.83-7.84,8.84-1.1,16.93.31,22.76,4l-10.51,16.69c-4.27-2.69-15.84-1.05-21.35,3-4.36,3.22-7.78,12-7.94,20.39-.15,7.47,2.68,18.06,7.76,29.07,5,10.86,16.31,22.42,30.2,30.92,15.65,9.58,33.26,14.61,49.57,14.12l.57,19.71C161.79,415.69,160.87,415.71,160,415.71Z" style="fill:#5E72FF"></path><g style="opacity:0.30000000000000004"><path d="M99.84,297.22l5.74-19s6.51,1.71,8.57,3.55l-10.4,16.4"></path></g><g style="opacity:0.30000000000000004"><path d="M147.92,322.61c.4-.2,62,49.83,107.11,61.35s82.39,13.51,96.9,10.51,32.79-8.16,32.79-8.16l-2.12-13.95s-52.94,4.09-87.48,1.84-117.89-51.59-117.89-51.59l-16.55-7.94Z"></path></g><path d="M325.49,390a209.78,209.78,0,0,1-43.24-4.76c-26.75-5.69-56.43-21.36-76.43-32.65-5-2.83-10.44-6-16.58-9.61-4.15-2.45-8.17-4.85-12-7.14-13.95-8.34-26.28-15.43-33.24-18.2,2.14-6.61,4.37-12.92,6.7-18.87,8.43,3.35,21.37,11,36.65,20.14,3.82,2.28,7.81,4.66,11.93,7.1,6,3.56,11.35,6.64,16.25,9.41,18.87,10.65,46.73,25.41,70.83,30.53,27,5.74,65.87,8.65,97.77-10C399,347.13,411.05,335,418,321.67c7.93-15.21,9.4-31.58,4.37-48.66-7.45-25.28-33.23-39.3-64.16-34.86-19.29,2.76-36,10.52-50.79,17.36-11.14,5.16-20.76,9.62-29.86,11.23l-3.43-19.42c6.57-1.16,15.11-5.12,25-9.7,15.2-7.05,34.13-15.82,56.28-19,20-2.87,38.87.33,54.45,9.27a67.43,67.43,0,0,1,31.42,39.54c6.43,21.83,4.43,43.74-5.8,63.35-8.76,16.8-23.07,31.35-41.39,42.09C372.17,385.72,347.92,390,325.49,390Z" style="fill:#5E72FF"></path><g style="opacity:0.30000000000000004"><path d="M357.27,218.52c2.49,7.43,1,19.93,1,19.93l-4.44.43a65.39,65.39,0,0,0-1.79-19.67Z"></path></g><g style="opacity:0.30000000000000004"><path d="M380.48,218.29a73,73,0,0,1,0,20l-4.4-.8v-19.7Z"></path></g><g style="opacity:0.30000000000000004"><path d="M425,285.45l.27,6.18s12.37-11.46,14.47-28.5a49.64,49.64,0,0,0-3.95-8.94Z"></path></g><g style="opacity:0.30000000000000004"><path d="M281.26,245.27c0,.33,3.09,19.63,3.09,19.63a45.82,45.82,0,0,1-7.2,2l-3.09-19.68A25,25,0,0,0,281.26,245.27Z"></path></g><path d="M240.89,323.76a79.4,79.4,0,0,1-28.58-5c-3.57-1.39-8.56-3.59-13.85-5.91-4.47-2-9.09-4-13.5-5.85-6.23-2.6-14.39-2.26-16.1,1l-15-7.89c6.61-12.68,24.53-14.19,37.58-8.74,4.55,1.91,9.25,4,13.79,6,5.12,2.25,9.95,4.38,13.18,5.64,11.05,4.3,25.67,5.06,39.11,2,17.21-3.89,38.83-17.43,50.31-31.51,12.18-14.94,16.19-32.32,11-47.69-4.9-14.51-29.33-24.21-42.66-22.86l-1.71-16.82c19.26-2,52.33,10.43,60.38,34.28,7.09,21,2,44.23-13.91,63.77-13.8,16.93-38.9,32.62-59.69,37.31A92.3,92.3,0,0,1,240.89,323.76Z" style="fill:#455a64"></path><path d="M215.41,466.58c0-11.5,6.91-23.94,18.53-33.27,28.64-23,70.52-18.05,92.94-13.05l-3.68,16.5c-45.33-10.1-68.75,1.76-78.68,9.73-9,7.24-12.21,15.34-12.21,20.07Z" style="fill:#455a64"></path><polygon points="314.42 441.32 339.33 432.04 321.72 412.03 314.42 441.32" style="fill:#455a64"></polygon><g style="opacity:0.30000000000000004"><path d="M283.28,186.07l-1.43,16.82h-5.5L274.76,186A30,30,0,0,1,283.28,186.07Z"></path></g><g style="opacity:0.30000000000000004"><path d="M156.39,296.39s14.3,10,14.11,10a3.46,3.46,0,0,0-1.64,1.57l-15-7.89A26.44,26.44,0,0,1,156.39,296.39Z"></path></g><polygon points="295.62 115.14 275.47 143.11 307.7 153.39 295.62 115.14" style="fill:#455a64"></polygon><path d="M393.5,316.76l-6.76-15.49-.11,0c.12-.05,11.88-5.74,23.57-25.91,11.79-20.34,11.69-51.26,11.67-53.32-2-38.23-18.91-64.76-50.36-78.86L371,143a86.56,86.56,0,0,0-67.84-.81l-7.37,3.05-6.45-15.63,7.38-3a103.49,103.49,0,0,1,81.14,1l.58.25c37.23,16.7,58.09,49.06,60.34,93.59v.25c0,1.51.61,37.17-13.93,62.25S395.18,316,393.5,316.76Z" style="fill:#455a64"></path><path d="M349.07,319.91l-18.2-7.15a152.92,152.92,0,0,1,7.79-17.44c3.75-7.41,7.62-15.07,10.69-24.73,11.13-35,9.63-54.27,2.67-79.64l19-5.23c7.82,28.47,9.67,51.37-2.89,90.85-3.55,11.17-8,19.92-11.88,27.64A146.85,146.85,0,0,0,349.07,319.91Z" style="fill:#5E72FF"></path><polygon points="378.93 186.55 353.98 162.58 340.47 194.53 378.93 186.55" style="fill:#5E72FF"></polygon><g style="opacity:0.30000000000000004"><polygon points="330.87 312.74 332.55 308.6 350.84 315.13 349.07 319.91 330.87 312.74"></polygon></g></g><g id="freepik--speech-bubbles--inject-45"><circle cx="377.45" cy="96.29" r="49.6" transform="matrix(0.99, -0.11, 0.11, 0.99, -8.5, 43.56)" style="fill:#fff"></circle><path d="M327.85,96.29a4.17,4.17,0,0,0,.09-.8c0-.57.1-1.35.17-2.35,0-.52.07-1.1.11-1.73s.21-1.32.32-2.07a35.54,35.54,0,0,1,1-5.11,47.25,47.25,0,0,1,5.51-13.12A49.57,49.57,0,0,1,400.6,53a50.8,50.8,0,0,1,6,3.87,55.19,55.19,0,0,1,5.57,4.74A56,56,0,0,1,417,67.26a47.29,47.29,0,0,1,7,13.53,52.85,52.85,0,0,1,2.54,15.5,52.51,52.51,0,0,1-2.53,15.5,47.8,47.8,0,0,1-7,13.53,55.17,55.17,0,0,1-4.82,5.7,54.11,54.11,0,0,1-5.57,4.74,50.8,50.8,0,0,1-6,3.87,52.46,52.46,0,0,1-6.41,2.82,49.31,49.31,0,0,1-59.09-21,47.37,47.37,0,0,1-5.51-13.12,35.81,35.81,0,0,1-1-5.11c-.11-.75-.25-1.44-.32-2.07s-.08-1.21-.11-1.73c-.07-1-.13-1.78-.17-2.35a4.38,4.38,0,0,0-.09-.81,6.27,6.27,0,0,0,0,.81c0,.58,0,1.36.07,2.36,0,.53,0,1.11.07,1.74s.18,1.33.27,2.09a36.59,36.59,0,0,0,1,5.16,46.82,46.82,0,0,0,5.41,13.31,49.9,49.9,0,0,0,33.59,23.65,50,50,0,0,0,26.28-2.11,50.72,50.72,0,0,0,6.53-2.86,51.52,51.52,0,0,0,6.15-3.93,56,56,0,0,0,5.69-4.82,56.1,56.1,0,0,0,4.91-5.8,48.43,48.43,0,0,0,7.17-13.8,53.19,53.19,0,0,0,2.59-15.8A53.14,53.14,0,0,0,425,80.49a48.68,48.68,0,0,0-7.17-13.8,57.14,57.14,0,0,0-4.92-5.79,54.67,54.67,0,0,0-5.68-4.82,45.64,45.64,0,0,0-12.68-6.79,50,50,0,0,0-26.28-2.11,49.9,49.9,0,0,0-33.59,23.65,46.71,46.71,0,0,0-5.41,13.31,36.33,36.33,0,0,0-1,5.16c-.09.75-.22,1.45-.27,2.08s-.05,1.22-.07,1.75c0,1-.05,1.78-.07,2.36A6,6,0,0,0,327.85,96.29Z" style="fill:#263238"></path><path d="M365,84.06h6.64s0-5.58,5.8-5.68a5.39,5.39,0,0,1,5.21,3.43,6,6,0,0,1-.48,5.38c-1.12,1.86-3.59,3.55-8.07,2.76v15h6.57V96.16s9.21-2.39,9.21-12.54c0-9.71-8.71-12-12.44-12C374.57,71.65,364.86,72.34,365,84.06Z" style="fill:#263238"></path><rect x="374.06" y="108.02" width="6.67" height="6.23" style="fill:#263238"></rect><circle cx="337.79" cy="149.39" r="7.5" transform="translate(0.59 300.12) rotate(-47.94)" style="fill:#fff"></circle><path d="M330.29,149.39c.1,0,.11-.67.44-1.78a7.5,7.5,0,0,1,2.75-3.88,7,7,0,1,1,0,11.32,7.5,7.5,0,0,1-2.75-3.88c-.33-1.11-.34-1.78-.44-1.78a3.62,3.62,0,0,0,0,1.88,7.41,7.41,0,0,0,2.7,4.38,7.8,7.8,0,0,0,7.48,1.24,8,8,0,0,0,0-15,7.83,7.83,0,0,0-7.48,1.24,7.46,7.46,0,0,0-2.7,4.38A3.61,3.61,0,0,0,330.29,149.39Z" style="fill:#263238"></path><circle cx="112.4" cy="142.93" r="26.09" transform="translate(-46.81 230.77) rotate(-80.71)" style="fill:#fff"></circle><path d="M138.49,142.93a2,2,0,0,1-.05-.42c0-.3-.05-.71-.09-1.24,0-.27,0-.58-.06-.91s-.11-.69-.17-1.09a17.29,17.29,0,0,0-.55-2.68,25.08,25.08,0,0,0-2.89-6.91,26,26,0,0,0-6.61-7.34,25.66,25.66,0,0,0-10.9-4.82,26,26,0,0,0-13.58,1.13,24.07,24.07,0,0,0-6.53,3.52,28.69,28.69,0,0,0-2.93,2.5,29.25,29.25,0,0,0-2.54,3,25.22,25.22,0,0,0-3.69,7.12,25.64,25.64,0,0,0,0,16.3,25.22,25.22,0,0,0,3.69,7.12,30.39,30.39,0,0,0,2.53,3,31.12,31.12,0,0,0,2.93,2.49,28.91,28.91,0,0,0,3.17,2,27.81,27.81,0,0,0,3.37,1.48,26.11,26.11,0,0,0,13.59,1.14,26.12,26.12,0,0,0,17.5-12.17,25,25,0,0,0,2.89-6.9,17.39,17.39,0,0,0,.55-2.69c.06-.39.14-.76.17-1.09s0-.64.06-.91c0-.52.07-.93.09-1.24a2,2,0,0,1,.05-.42,2.21,2.21,0,0,1,0,.42c0,.31,0,.72,0,1.25l0,.91c0,.34-.09.7-.14,1.1a19.71,19.71,0,0,1-.51,2.71,24.83,24.83,0,0,1-2.85,7,26.17,26.17,0,0,1-31.49,11.33,28.08,28.08,0,0,1-3.44-1.51,27.15,27.15,0,0,1-3.23-2.07,29.65,29.65,0,0,1-3-2.53,29.07,29.07,0,0,1-2.58-3.05,25.34,25.34,0,0,1-3.78-7.26,28.14,28.14,0,0,1-1.36-8.31,27.82,27.82,0,0,1,1.37-8.31,25.57,25.57,0,0,1,3.77-7.26,29.07,29.07,0,0,1,2.58-3,29.65,29.65,0,0,1,3-2.53,27.15,27.15,0,0,1,3.23-2.07,26.85,26.85,0,0,1,17.26-2.61,26.22,26.22,0,0,1,17.67,12.44,24.66,24.66,0,0,1,2.85,7,19.71,19.71,0,0,1,.51,2.71c.05.4.11.76.14,1.1l0,.92c0,.52,0,.93,0,1.24A2.21,2.21,0,0,1,138.49,142.93Z" style="fill:#263238"></path><path d="M104.43,137.93h4.26a3.62,3.62,0,0,1,3.72-3.64,3.42,3.42,0,0,1,3.34,2.2,3.8,3.8,0,0,1-.3,3.45c-.72,1.19-2.31,2.28-5.18,1.77v9.61h4.22v-5.63a8.22,8.22,0,0,0,5.91-8c0-6.23-5.59-7.68-8-7.68C110.58,130,104.35,130.41,104.43,137.93Z" style="fill:#263238"></path><rect x="110.26" y="153.3" width="4.28" height="4" style="fill:#263238"></rect><path d="M150.08,155.3a4.39,4.39,0,1,1-4.39-4.38A4.39,4.39,0,0,1,150.08,155.3Z" style="fill:#fff"></path><path d="M150.08,155.3c-.06,0-.06-.39-.26-1a4.37,4.37,0,0,0-1.61-2.27,4.13,4.13,0,0,0-6.59,3.31,4.13,4.13,0,0,0,6.59,3.31,4.33,4.33,0,0,0,1.61-2.27c.2-.65.2-1,.26-1a2.15,2.15,0,0,1,0,1.1,4.34,4.34,0,0,1-1.58,2.56,4.58,4.58,0,0,1-4.38.73,4.65,4.65,0,0,1,0-8.78,4.61,4.61,0,0,1,4.38.73,4.4,4.4,0,0,1,1.58,2.56A2.12,2.12,0,0,1,150.08,155.3Z" style="fill:#263238"></path><circle cx="419.83" cy="373.96" r="35.19" style="fill:#fff"></circle><path d="M455,374a3.14,3.14,0,0,1-.07-.57c0-.41-.06-1-.12-1.67,0-.37-.05-.78-.07-1.22s-.15-.94-.23-1.47a26.92,26.92,0,0,0-.74-3.63,34.06,34.06,0,0,0-3.91-9.31,35.18,35.18,0,0,0-46.47-12.87,35.92,35.92,0,0,0-4.27,2.74,39.21,39.21,0,0,0-4,3.37,38.1,38.1,0,0,0-3.41,4,34,34,0,0,0-5,9.59,37.48,37.48,0,0,0-1.8,11,37.09,37.09,0,0,0,1.8,11,33.88,33.88,0,0,0,5,9.61,40.21,40.21,0,0,0,3.41,4,39.11,39.11,0,0,0,4,3.36,37.31,37.31,0,0,0,4.27,2.75,36.55,36.55,0,0,0,4.55,2,35.07,35.07,0,0,0,18.31,1.53,35.17,35.17,0,0,0,23.61-16.41,33.75,33.75,0,0,0,3.91-9.31,27.12,27.12,0,0,0,.74-3.62c.08-.54.18-1,.23-1.47s.05-.86.07-1.23c.06-.71.09-1.26.12-1.67A3.14,3.14,0,0,1,455,374a4.07,4.07,0,0,1,0,.57c0,.41,0,1,0,1.68,0,.37,0,.78,0,1.23s-.13.95-.2,1.48a24.93,24.93,0,0,1-.68,3.66,33.21,33.21,0,0,1-3.84,9.45,35.46,35.46,0,0,1-23.83,16.78,35.58,35.58,0,0,1-18.64-1.5,32.68,32.68,0,0,1-9-4.82,38.17,38.17,0,0,1-4-3.42,39.42,39.42,0,0,1-3.49-4.11,34.41,34.41,0,0,1-5.09-9.79,35.25,35.25,0,0,1,0-22.42,34.53,34.53,0,0,1,5.09-9.79,39.42,39.42,0,0,1,3.49-4.11,40.51,40.51,0,0,1,4-3.42,37.38,37.38,0,0,1,4.36-2.79,36.46,36.46,0,0,1,4.64-2,35.46,35.46,0,0,1,18.64-1.49,35.41,35.41,0,0,1,23.83,16.77,33.32,33.32,0,0,1,3.84,9.45,24.93,24.93,0,0,1,.68,3.66c.07.53.16,1,.2,1.48s0,.86,0,1.23c0,.72,0,1.27,0,1.68A4.07,4.07,0,0,1,455,374Z" style="fill:#263238"></path><path d="M410.33,366h5.08a4.33,4.33,0,0,1,4.44-4.35,4.12,4.12,0,0,1,4,2.63,4.54,4.54,0,0,1-.37,4.11c-.86,1.43-2.75,2.72-6.18,2.12V382h5v-6.71a9.83,9.83,0,0,0,7.05-9.6c0-7.44-6.66-9.16-9.52-9.16C417.67,356.48,410.23,357,410.33,366Z" style="fill:#263238"></path><rect x="417.28" y="384.31" width="5.1" height="4.77" style="fill:#263238"></rect><path d="M382.53,335a5.84,5.84,0,1,0,5.84-5.83A5.84,5.84,0,0,0,382.53,335Z" style="fill:#fff"></path><path d="M382.53,335c.08,0,.08-.52.34-1.38a5.83,5.83,0,0,1,2.15-3,5.48,5.48,0,1,1,0,8.81,5.87,5.87,0,0,1-2.15-3c-.26-.87-.26-1.39-.34-1.39a3.12,3.12,0,0,0,0,1.47,5.8,5.8,0,0,0,2.1,3.4,6.08,6.08,0,0,0,5.83,1,6.19,6.19,0,0,0,0-11.68,6.13,6.13,0,0,0-5.83,1,5.82,5.82,0,0,0-2.1,3.41A3,3,0,0,0,382.53,335Z" style="fill:#263238"></path><circle cx="78.08" cy="428.65" r="24.34" transform="translate(-354.71 378.34) rotate(-73.05)" style="fill:#fff"></circle><path d="M102.42,428.65a2.59,2.59,0,0,1,0-.4c0-.28,0-.66-.09-1.15,0-.26,0-.54-.05-.85s-.1-.65-.16-1a18.21,18.21,0,0,0-.51-2.5,23,23,0,0,0-2.71-6.44,24.14,24.14,0,0,0-29-10.3,25.66,25.66,0,0,0-3.14,1.39,25.17,25.17,0,0,0-3,1.9A26,26,0,0,0,61,411.6a26.47,26.47,0,0,0-2.36,2.8A23.3,23.3,0,0,0,55.22,421a23.94,23.94,0,0,0,0,15.21,23.39,23.39,0,0,0,3.44,6.64,26.55,26.55,0,0,0,2.37,2.8A27.33,27.33,0,0,0,63.76,448a25.17,25.17,0,0,0,3,1.9,24.15,24.15,0,0,0,26-2.06A23.88,23.88,0,0,0,98.86,441a23.25,23.25,0,0,0,2.71-6.44,18.63,18.63,0,0,0,.51-2.51c.06-.37.13-.7.16-1s0-.6.05-.85c0-.49.07-.88.09-1.16a2.33,2.33,0,0,1,0-.39,2.29,2.29,0,0,1,0,.39c0,.29,0,.67,0,1.16,0,.26,0,.54,0,.86s-.09.65-.14,1a16.62,16.62,0,0,1-.47,2.53,23.17,23.17,0,0,1-2.65,6.54,24.42,24.42,0,0,1-29.39,10.57,22.29,22.29,0,0,1-6.22-3.33A27.11,27.11,0,0,1,60.7,446a27.77,27.77,0,0,1-2.42-2.85,24,24,0,0,1-3.52-6.77,26.16,26.16,0,0,1-1.26-7.76,25.83,25.83,0,0,1,1.27-7.75,23.57,23.57,0,0,1,3.52-6.77,27.49,27.49,0,0,1,2.41-2.85,27,27,0,0,1,2.79-2.36,22.29,22.29,0,0,1,6.22-3.33A24.45,24.45,0,0,1,99.1,416.15a23.13,23.13,0,0,1,2.65,6.53,17.08,17.08,0,0,1,.47,2.53c0,.37.11.71.14,1s0,.6,0,.85c0,.5,0,.88,0,1.16A2.47,2.47,0,0,1,102.42,428.65Z" style="fill:#263238"></path><path d="M71.5,423.12H75a3,3,0,0,1,3.07-3,2.84,2.84,0,0,1,2.76,1.81,3.16,3.16,0,0,1-.25,2.85c-.6,1-1.91,1.88-4.28,1.46v7.94H79.8v-4.65a6.79,6.79,0,0,0,4.88-6.64c0-5.14-4.61-6.34-6.59-6.34C76.58,416.55,71.44,416.92,71.5,423.12Z" style="fill:#263238"></path><rect x="76.31" y="435.81" width="3.53" height="3.3" style="fill:#263238"></rect><path d="M94.05,397.7a5.63,5.63,0,1,0,5.63-5.62A5.63,5.63,0,0,0,94.05,397.7Z" style="fill:#fff"></path><path d="M94.05,397.7c.07,0,.08-.5.33-1.33a5.55,5.55,0,0,1,2.06-2.91,5.36,5.36,0,0,1,5-.69,5.27,5.27,0,0,1,0,9.87,5.36,5.36,0,0,1-5-.69A5.55,5.55,0,0,1,94.38,399c-.25-.83-.26-1.34-.33-1.34a2.81,2.81,0,0,0,0,1.42,5.67,5.67,0,0,0,2,3.28,5.89,5.89,0,0,0,5.62.93,6,6,0,0,0,0-11.25,5.89,5.89,0,0,0-5.62.93,5.67,5.67,0,0,0-2,3.28A2.75,2.75,0,0,0,94.05,397.7Z" style="fill:#263238"></path></g></svg>
